<svg xmlns="http://www.w3.org/2000/svg" height="30" width="30" viewBox="0 0 100 100">
  <path fill="#0065A9" d="M96.46 10.8 75.86.88a6.23 6.23 0 0 0-7.11 1.21L1.3 63.58a4.17 4.17 0 0 0 .01 6.16l5.5 5.01a4.17 4.17 0 0 0 5.32.24l81.23-61.62c2.73-2.07 6.64-.12 6.64 3.3a6.25 6.25 0 0 0-3.54-5.63Z"/>
  <path fill="#007ACC" d="m96.46 89.2-20.6 9.92a6.23 6.23 0 0 1-7.11-1.21L1.3 36.42a4.17 4.17 0 0 1 0-6.16l5.5-5.01a4.17 4.17 0 0 1 5.32-.24l81.23 61.62c2.73 2.07 6.64.12 6.64-3.3a6.25 6.25 0 0 1-3.54 5.63Z"/>
  <path fill="#1F9CF0" d="M75.86 99.13a6.23 6.23 0 0 1-7.11-1.21c2.3 2.3 6.25.67 6.25-2.59V4.67c0-3.26-3.95-4.89-6.25-2.59a6.23 6.23 0 0 1 7.11-1.21l20.6 9.91A6.25 6.25 0 0 1 100 16.41v67.18a6.25 6.25 0 0 1-3.54 5.63l-20.6 9.91Z"/>
  <path fill="none" fill-opacity=".25" d="M70.85 99.32a6.22 6.22 0 0 0 4.96-.19l20.59-9.91a6.25 6.25 0 0 0 3.54-5.63V16.41a6.25 6.25 0 0 0-3.54-5.63L75.81.87a6.23 6.23 0 0 0-7.1 1.21L29.3 38.04 12.13 25.01a4.16 4.16 0 0 0-5.32.24L1.3 30.26a4.17 4.17 0 0 0 0 6.16L16.19 50 1.3 63.58a4.17 4.17 0 0 0 0 6.16l5.5 5.01a4.16 4.16 0 0 0 5.32.24L29.3 61.96l39.41 35.96a6.22 6.22 0 0 0 2.14 1.4ZM74.95 27.3 45.05 50l29.9 22.7V27.3Z"/>
</svg>
